<svg width="96" height="96" viewBox="0 0 96 96" fill="none" xmlns="http://www.w3.org/2000/svg">
<path d="M24 24C15.729 24 9 30.729 9 39C9 47.271 15.729 54 24 54H42C43.653 54 45 55.344 45 57C45 58.656 43.653 60 42 60H15C11.688 60 9 62.688 9 66C9 69.312 11.688 72 15 72H42C50.271 72 57 65.271 57 57C57 48.729 50.271 42 42 42H24C22.347 42 21 40.656 21 39C21 37.344 22.347 36 24 36H45C48.312 36 51 33.312 51 30C51 26.688 48.312 24 45 24H24ZM55.3359 24C56.3679 25.77 57 27.804 57 30C57 32.202 56.3504 34.227 55.3184 36H72C73.656 36 75 37.344 75 39V57C75 58.656 73.656 60 72 60H62.7598C62.0878 64.668 59.891 68.847 56.666 72H75C81.627 72 87 66.627 87 60V36C87 29.373 81.627 24 75 24H55.3359Z" fill="#009287"/>
</svg>
